<svg width="312" height="88" viewBox="0 0 312 88" fill="none" xmlns="http://www.w3.org/2000/svg">
<g clip-path="url(#clip0_3786_2410)">
<path d="M32.3271 48.3049C37.8555 45.2993 43.066 42.4729 49.2557 39.1153C45.3291 39.1153 42.3631 39.1153 39.3971 39.1153C39.2523 38.6845 39.1075 38.2538 38.9627 37.823C44.7636 34.8895 50.3645 31.4235 56.4141 29.1524C64.6635 26.0554 73.2942 31.1921 75.1977 39.5578C77.2263 48.4737 71.5825 56.9209 62.3474 57.7159C55.3297 58.32 48.2182 57.8358 39.6769 57.8358C44.3392 55.3865 47.7531 53.5931 52.1236 51.2972C43.7969 51.2972 36.4648 51.2972 29.1327 51.2972C29.0065 50.9901 28.8802 50.6831 28.7539 50.376C29.839 49.7454 30.9241 49.1147 32.3271 48.3049Z" fill="#1C2119"/>
<path d="M161.116 49.894C161.116 46.7774 161.116 44.121 161.116 41.4647C160.84 41.3753 160.565 41.2858 160.289 41.1964C158.943 44.7865 157.62 48.3856 156.242 51.9634C155.406 54.1332 154.671 55.9972 151.508 56.0221C148.196 56.0482 147.819 53.9235 147.02 51.8175C145.691 48.3124 144.395 44.7946 142.04 41.3613C142.04 43.6758 142.04 45.9903 142.04 48.3048C142.04 50.6178 142.04 52.9308 142.04 55.6439C140.232 55.727 138.682 55.7983 136.945 55.8781C136.945 47.4011 136.945 39.2861 136.945 30.7935C139.424 30.7935 141.822 30.7935 144.619 30.7935C146.73 36.3256 148.951 42.1452 151.532 48.9093C153.435 44.1646 155.538 40.2948 156.509 36.1592C157.817 30.5926 160.949 29.4192 166.232 30.8591C166.232 38.9763 166.232 47.1968 166.232 55.6505C164.759 55.6505 163.322 55.6505 161.116 55.6505C161.116 53.8566 161.116 52.1054 161.116 49.894Z" fill="#2B3029"/>
<path d="M229.282 55.9164C226.5 55.9164 222.5 51.8239 222.5 49.259C222.5 47.6044 225.83 46.1325 228.093 49.259C230.429 52.4866 234.775 52.5744 238.544 50.7884C239.342 50.41 240.212 48.9481 240.07 48.1621C239.926 47.3647 238.656 46.3837 237.73 46.1874C234.983 45.6053 232.093 45.6378 229.389 44.9327C225.912 44.0261 222.117 43.1925 221.946 38.3353C221.777 33.5152 224.779 31.725 228.815 30.6481C237.14 28.4269 245.717 32.4994 245.717 36C245.717 39.5006 241.468 36.9143 239.5 36.0001C238.048 35.3254 235.807 34.8406 234.424 35.0305C232.103 35.3489 227.5 35.5001 227.659 37.4153C227.791 39.0001 231.692 39.5212 233.832 40.1526C236.357 40.8972 239.373 40.5701 241.517 41.8298C243.478 42.982 245.809 45.6905 245.717 47.6044C245.598 50.0877 243.76 53.807 241.733 54.5917C238.073 56.008 234 56.0001 229.282 55.9164Z" fill="#2B2F28"/>
<path d="M108.419 36.7331C106.988 40.4719 105.007 39.3647 103.081 37.4457C99.4247 33.8034 94.7723 33.7817 90.4116 38.1987C92.5111 38.896 94.1634 39.5903 95.8845 39.9846C98.9426 40.6853 102.335 40.626 105.027 41.9908C107.007 42.9945 109.234 45.7387 109.275 47.7496C109.322 50.0338 107.619 53.169 105.687 54.519C100.7 58.0047 90.8677 56.6777 87.2468 52.5038C86.0493 51.1234 85.4253 49.2455 84.5391 47.5951C84.9778 47.0828 85.4165 46.5705 85.8553 46.0582C87.7408 47.1708 89.9647 47.9522 91.444 49.4627C94.8999 52.9913 101.402 52.4418 104.415 47.2313C101.909 46.6381 99.6707 46.0517 97.4072 45.5877C94.97 45.0881 92.4002 45.0152 90.0811 44.2044C85.0543 42.4468 83.9194 36.6392 87.6923 32.9595C93.1468 27.6398 104.614 29.5557 108.419 36.7331Z" fill="#2B2F28"/>
<path d="M131.038 40.9444C131.588 42.3059 131.739 43.5595 131.931 45.1639C127.022 45.1639 122.563 45.1639 117.471 45.1639C117.381 47.1445 117.302 48.8512 117.205 50.9807C122.767 50.9807 128.043 50.9807 133.715 50.9807C133.812 52.7034 133.888 54.0594 133.977 55.6577C126.662 55.6577 119.718 55.6577 112.371 55.6577C112.371 47.5131 112.371 39.2946 112.371 30.752C119.279 30.752 126.353 30.752 133.665 30.752C133.727 32.0487 133.789 33.3222 133.875 35.1091C128.406 35.1091 123.176 35.1091 117.597 35.1091C117.597 37.1464 117.597 38.6835 117.597 40.8366C122.081 40.8366 126.359 40.8366 131.038 40.9444Z" fill="#282C25"/>
<path d="M170.11 31.4817C175.982 31.0765 181.764 30.8302 187.493 31.271C190.893 31.5326 192.623 34.2145 192.517 37.6403C192.335 43.4756 191.978 49.3055 191.671 55.6125C190.292 55.6931 188.751 55.7833 186.859 55.894C186.859 52.737 186.859 49.9437 186.859 46.8526C182.943 46.8526 179.357 46.8526 175.349 46.8526C175.349 49.8259 175.349 52.5902 175.349 55.604C173.507 55.7232 172.066 55.8165 169.998 55.9504C169.998 47.8048 169.998 39.8672 170.11 31.4817ZM175.349 42.0128C177.013 42.0116 181 42.0128 182.5 42.0128C185.5 42.0128 187 42.0128 187 38C187 35.6689 187 35.3005 182.945 35.3005C180.5 35.3005 179.178 35.3005 175.349 35.3005C175.349 38.5 175.349 38.5 175.349 42.0128Z" fill="#252A22"/>
<path d="M268.043 31.1704C269.681 30.6703 271.108 30.5297 272.798 30.3633C272.798 39.0493 272.798 47.2852 272.798 55.703C271.141 55.703 269.704 55.703 267.771 55.703C267.771 52.3479 267.771 49.1092 267.771 45.5535C263.027 45.5535 258.767 45.5535 253.865 45.5535C253.717 48.7249 253.559 52.1041 253.395 55.6293C251.787 55.6293 250.371 55.6293 248.684 55.6293C248.684 47.2945 248.684 39.2087 248.684 30.7212C250.159 30.6285 251.555 30.5407 253.347 30.4282C253.526 34.0238 253.687 37.2566 253.85 40.5331C258.566 40.5331 262.829 40.5331 267.832 40.5331C267.832 37.3932 267.832 34.4616 268.043 31.1704Z" fill="#2C312A"/>
<path d="M199.192 53.9999C194.588 51.657 194.998 48.0793 194.998 44.5C194.998 40.0793 194.999 35.5096 194.999 30.7715C196.735 30.7715 198.148 30.7715 199.689 30.7715C199.847 31.2324 200.128 31.6748 200.133 32.12C200.174 36.1151 200.055 40.1149 200.203 44.1052C200.384 48.9817 202.917 51.6546 207.056 51.6501C211.121 51.6457 213.694 49.0617 213.929 44.2543C214.139 39.9397 213.973 35.6067 213.973 30.8911C215.654 30.8911 217.17 30.8911 219.171 30.8911C219.171 34.8891 219.222 38.8429 219.162 42.7949C218.981 54.6323 210 59.5 199.192 53.9999Z" fill="#1B2018"/>
</g>
<defs>
<clipPath id="clip0_3786_2410">
<rect width="312" height="88" fill="white"/>
</clipPath>
</defs>
</svg>
